<svg xmlns="http://www.w3.org/2000/svg" viewBox="0 0 240 240" role="img" aria-label="The Solver">
<defs><linearGradient id="g" x1="0" y1="0" x2="1" y2="1"><stop stop-color="#E9E3FF"/><stop offset="1" stop-color="#DFF3FF"/></linearGradient></defs>
<rect width="240" height="240" rx="54" fill="url(#g)"/>
<circle cx="112" cy="87" r="31" fill="#6E63B8"/><path d="M70 184c5-44 24-67 43-67s40 22 45 67" fill="#8277C9"/>
<circle cx="101" cy="82" r="4" fill="#292645"/><circle cx="124" cy="82" r="4" fill="#292645"/><path d="M103 99c7 5 14 5 21 0" fill="none" stroke="#292645" stroke-width="4" stroke-linecap="round"/>
<path d="M157 72h31v22c11-3 20 3 20 12 0 10-9 16-20 13v24h-29c4-12-3-21-13-21-9 0-16 9-12 21h-22v-30h22c-3-11 3-19 13-19 9 0 16 8 12 19h28V94h-30z" fill="#FFD36B" stroke="#5A4F8E" stroke-width="4" stroke-linejoin="round"/>
<path d="M78 130c-14 11-23 27-27 47" fill="none" stroke="#6E63B8" stroke-width="12" stroke-linecap="round"/>
</svg>